HIERARCHY
ROOT HipCenter
{
    OFFSET 0.0 0.0 -0.0
    CHANNELS 6 Xposition Yposition Zposition Zrotation Xrotation Yrotation
    JOINT Spine
    {
        OFFSET 0.0 12.220197677612305 0.0
        CHANNELS 3 Zrotation Xrotation Yrotation
        JOINT ShoulderCenter
        {
            OFFSET 0.0 33.27177047729492 0.0
            CHANNELS 3 Zrotation Xrotation Yrotation
            JOINT LeftShoulder
            {
                OFFSET 17.754846572875977 0.0 0.0
                CHANNELS 3 Zrotation Xrotation Yrotation
                JOINT LeftElbow
                {
                    OFFSET 29.747600555419922 0.0 0.0
                    CHANNELS 3 Zrotation Xrotation Yrotation
                    JOINT LeftWrist
                    {
                        OFFSET 29.694660186767578 0.0 0.0
                        CHANNELS 3 Zrotation Xrotation Yrotation
                        JOINT LeftHand
                        {
                            OFFSET 4.491735458374023 0.0 0.0
                            CHANNELS 3 Zrotation Xrotation Yrotation
                            End Site
                            {
                                OFFSET 1.796694278717041 0.0 0.0
                            }
                        }
                    }
                }
            }
            JOINT RightShoulder
            {
                OFFSET -17.754846572875977 0.0 0.0
                CHANNELS 3 Zrotation Xrotation Yrotation
                JOINT RightElbow
                {
                    OFFSET -29.747600555419922 0.0 0.0
                    CHANNELS 3 Zrotation Xrotation Yrotation
                    JOINT RightWrist
                    {
                        OFFSET -29.694660186767578 0.0 0.0
                        CHANNELS 3 Zrotation Xrotation Yrotation
                        JOINT RightHand
                        {
                            OFFSET -4.491735458374023 0.0 0.0
                            CHANNELS 3 Zrotation Xrotation Yrotation
                            End Site
                            {
                                OFFSET -1.796694278717041 0.0 0.0
                            }
                        }
                    }
                }
            }
            End Site
            {
                OFFSET 0.0 13.308709144592285 0.0
            }
        }
    }
    JOINT LeftHip
    {
        OFFSET 13.283145904541016 0.0 0.0
        CHANNELS 3 Zrotation Xrotation Yrotation
        JOINT LeftKnee
        {
            OFFSET 0.0 -42.080963134765625 0.0
            CHANNELS 3 Zrotation Xrotation Yrotation
            JOINT LeftAnkle
            {
                OFFSET 0.0 -43.70472717285156 0.0
                CHANNELS 3 Zrotation Xrotation Yrotation
                JOINT LeftFoot
                {
                    OFFSET 0.0 -12.597090721130371 0.0
                    CHANNELS 3 Zrotation Xrotation Yrotation
                    End Site
                    {
                        OFFSET 0.0 0.0 5.0388360023498535
                    }
                }
            }
        }
    }
    JOINT RightHip
    {
        OFFSET -13.283145904541016 0.0 0.0
        CHANNELS 3 Zrotation Xrotation Yrotation
        JOINT RightKnee
        {
            OFFSET 0.0 -42.080963134765625 0.0
            CHANNELS 3 Zrotation Xrotation Yrotation
            JOINT RightAnkle
            {
                OFFSET 0.0 -43.70472717285156 0.0
                CHANNELS 3 Zrotation Xrotation Yrotation
                JOINT RightFoot
                {
                    OFFSET 0.0 -12.597090721130371 0.0
                    CHANNELS 3 Zrotation Xrotation Yrotation
                    End Site
                    {
                        OFFSET 0.0 0.0 5.0388360023498535
                    }
                }
            }
        }
    }
}
MOTION
Frames: 6
Frame Time: 0.03333333333333333
52.20000076293945 -18.899999618530273 -70.5 0.7848117820882237 53.315074140806814 19.25782419816712 9.627798466445466 -8.580975730356604 2.496497589794565 9.559151697992352e-07 1.128287275176422e-06 16.236474084398274 135.65240026818196 -42.27693798001988 -112.67726687997532 -2.3887421611488657e-06 -2.09791826104158e-06 74.0299034426153 179.99999864838722 -55.79069831549159 -110.70984002039454 -3.1805546814635176e-15 5.565970692561156e-15 5.963540027744095e-15 -90.14466756539034 15.18060448000354 98.5457823256382 4.0198650328300775e-06 -8.304361241600273e-07 -103.90543489568275 179.9999862596047 -84.30417605260683 170.75818189099866 -7.951386703658791e-16 7.951386703658792e-16 -7.156248033292914e-15 46.020286046901305 -62.300370549995996 94.17895517906273 49.94576381689006 46.81333215408677 -127.30814953472887 101.32190464110579 -21.883722216588673 161.48802658446525 -1.1927080055488186e-15 5.9635400277440935e-15 -3.975693351829395e-16 -117.72770502460884 -48.09403388812548 159.5823077007316 -62.225639322217205 -12.082192673257005 -147.51534067134136 -74.91346529392159 25.83923104347129 161.9308345073695 3.1805546814635168e-15 0.0 0.0
52.29999923706055 -19.5 -71.0 1.324082791579779e-06 53.317655818264136 18.587586166386778 8.389525751760686 -8.466800948815935 2.441160829105252 6.967678790586139e-07 -1.0150758498761323e-06 15.028916943076842 133.19281728299774 -40.43525663774876 -114.79643047434145 1.530924416646678e-06 -2.0162375806726075e-06 76.30632084630409 -179.99999994278295 -53.824371185274536 -109.73715274784192 3.1805546814635164e-15 -3.1805546814635164e-15 7.951386703658792e-16 -100.29627448713812 14.975599836512652 101.02547993509219 -1.5332050527989862e-06 -1.2369562862762822e-06 -106.42661011584698 1.0059096289763225e-06 -70.96513712497568 -6.325473634354499 3.1805546814635164e-15 1.3241718894150476e-31 4.770832022195274e-15 52.8658097774415 -61.45658282335094 112.0482821234512 59.383390981252965 38.982262282525866 -142.18226963378905 101.99006384528147 -18.20159131437203 164.87992827339176 6.162324695335563e-15 6.361109362927033e-15 2.3854160110976368e-15 -118.9638647616179 -49.16391606278146 160.3941568502879 -62.84150225594471 -9.985842241644976 -153.85639322311098 -75.3131624324104 20.968758867681498 165.1847359911531 3.1805546814635164e-15 8.827812596100317e-32 3.1805546814635164e-15
52.39999771118164 -20.200000762939453 -71.4000015258789 -0.7742085541842073 52.65796553794333 18.16560537266419 6.182933951309371 -7.988588385207481 2.063540261261813 1.553355648121445e-07 -2.5565642497579298e-06 13.327625365084645 131.68583248353448 -38.784475073888856 -115.39852119482177 9.69548158154789e-07 3.562657226828094e-07 76.25682282985986 179.99999710967816 -55.63265770862674 -110.02304023547718 1.590277340731758e-15 -3.180554681463516e-15 1.590277340731758e-15 -105.24760868640767 14.405807321534908 102.0950212292961 5.010012910886269e-06 1.943056918361067e-06 -106.96574728324389 3.2230889192659237e-06 13.171036555181022 -2.363880263891196 0.0 0.0 0.0 56.54394110948803 -60.5185709936661 121.05453162440276 63.954801885425425 34.029358922846185 -148.66517094002722 102.98305995671413 -16.511509440451647 166.85247637257729 -2.584200678689107e-15 1.987846675914698e-16 -1.1927080055488186e-15 -119.54703636655509 -50.09240619184897 161.6406389735154 -63.91271889598909 -8.071332971018325 -158.9699268627972 -76.5950487326561 16.886034977588036 168.51700994526908 -6.3611093629270335e-15 -3.1805546814635168e-15 -1.7655625192200634e-31
52.39999771118164 -20.80000114440918 -72.0999984741211 -4.635453525918581 52.569904860083625 20.877548628601268 5.920562442582852 -8.658995413992832 1.9738562371682764 1.328942249431379e-06 7.213525482335741e-06 12.142511865363895 131.51855031041194 -37.67325642430397 -113.93018527352588 4.914780006681153e-06 6.472372354954544e-07 76.21733601467619 -179.99999467692408 -54.295982050029146 -110.5706465899386 0.0 0.0 2.782985346280577e-15 -106.98478847083814 14.696581471496875 102.84200106186807 4.834959381655726e-06 -1.4187763568542747e-06 -107.35100405100958 1.4874976890274457e-06 50.02552956581078 -6.369767116332525 -6.3611093629270335e-15 3.578124016646457e-15 -6.3611093629270335e-15 62.98993522749729 -60.783895702214664 130.80144815195186 67.29717987334708 29.369147041202304 -154.17697287556345 103.63753887672515 -16.70117535315611 167.0695365868093 2.4848083448933726e-15 4.9696166897867505e-17 2.683593012484842e-15 -119.87304255680387 -49.58101510334942 159.50016384562522 -64.90117213051033 -7.777867368949038 -160.3809862696221 -76.72562961889167 15.133299699491973 169.4852852373835 6.3611093629270335e-15 -3.1805546814635168e-15 1.7655625192200634e-31
52.29999923706055 -21.5 -72.69999694824219 -7.594645269044673 51.7560954458804 23.40909399432211 4.8544886799814115 -8.339904699963462 1.661696943831883 1.5482674686866282e-06 -6.761728131279538e-07 12.0679902612274 131.81320946158723 -37.77877198445489 -111.3647241286717 2.865502266493313e-06 -1.448782572043487e-06 76.19309929500523 179.9999952271376 -57.08976808196103 -109.59793370073355 3.1805546814635168e-15 7.951386703658792e-16 -7.951386703658792e-16 -109.98811225649884 16.42491041565303 104.78484481830426 1.4658413599618523e-06 -1.5807325045139948e-06 -108.5740327820752 -1.3769904064141434e-05 70.69789355843763 -10.9748260750422 -1.2722218725854064e-14 0.0 0.0 67.26485522143203 -61.2032039707048 136.798974250133 69.73270327459808 26.14935291266622 -157.42025295744628 104.52809908832322 -12.562334773701945 170.5437927099051 1.0436195048552165e-15 6.361109362927033e-15 -2.3357198441997697e-15 -118.91715250898996 -49.22997391956169 159.45973681272713 -65.777193983506 -7.286266712804276 -162.78507488531386 -76.66146662715614 13.501867339632907 170.12642082060918 1.7655625192200634e-31 6.361109362927037e-15 -3.1805546814635183e-15
52.29999923706055 -22.100000381469727 -73.19999694824219 -10.57353181654622 51.52425785894679 25.52180368083355 3.6116282059119387 -8.703473556375037 1.432467714983724 -1.2550151737433895e-06 -5.101508339810071e-06 11.230740751124543 132.87732080305818 -37.22770356844126 -109.5995945190675 3.5424864876403935e-06 -2.874647405302882e-06 76.62098252845428 -179.99999944815744 -52.13666127872016 -110.26151392583486 0.0 0.0 -1.5902773407317584e-15 -115.26996404436217 16.31544866307391 107.7609010578134 -5.931832419687044e-08 2.80720107563329e-06 -110.12289488859048 1.671470779593962e-05 87.58549133196786 -16.538639672879267 0.0 0.0 6.3611093629270335e-15 71.78913292418994 -61.199940045032434 142.75868343987483 71.416878653056 23.494098521753546 -159.70712261451018 105.2171296356022 -12.742869656203647 170.83007097904377 3.4103994533661536e-15 6.3611093629270335e-15 2.981770013872045e-16 -119.13740774681378 -48.91035578527761 158.97646353407123 -66.73913529324206 -6.1988188278090295 -165.65593840958758 -76.77954967176247 11.293960597093486 171.636915723068 -6.361109362927033e-15 0.0 0.0
